<?xml version="1.0" encoding="utf-8"?>
<svg version="1.1" id="Layer_1" x="0px" y="0px" viewBox="-0.134 179.97 512.356 152.115" style="enable-background:new 0 0 512 512;" xmlns="http://www.w3.org/2000/svg">
  <style type="text/css">
	.st0{fill:#FFFFFF;}
	.st1{fill:#A6A6A6;}
</style>
  <g id="XMLID_1_">
    <path id="XMLID_3_" class="st0" d="M508.63,313.93c0,8-6.45,14.59-14.59,14.59H17.96c-8,0-14.59-6.45-14.59-14.59V198.07 c0-8,6.59-14.59,14.59-14.59h476.09c8,0,14.59,6.59,14.59,14.59V313.93"/>
    <path id="XMLID_4_" class="st1" d="M494.04,331.89H17.96C8,331.89,0,323.89,0,313.93V198.07c0-9.82,8-17.96,17.96-17.96h476.09 c9.82,0,17.96,8,17.96,17.96v115.87C512,323.89,504,331.89,494.04,331.89"/>
    <path id="XMLID_5_" d="M508.63,313.93c0,8-6.45,14.59-14.59,14.59H17.96c-8,0-14.59-6.45-14.59-14.59V198.07 c0-8,6.59-14.59,14.59-14.59h476.09c8,0,14.59,6.59,14.59,14.59V313.93"/>
    <path id="XMLID_6_" class="st0" d="M114.32,255.16c-0.14-12.2,9.96-18.24,10.52-18.52c-5.75-8.42-14.59-9.54-17.67-9.54 c-7.43-0.84-14.73,4.49-18.52,4.49c-3.93,0-9.68-4.35-15.99-4.21c-8.14,0.14-15.71,4.77-19.92,12.06 c-8.56,14.87-2.24,36.75,6.03,48.82c4.07,5.89,8.98,12.48,15.29,12.2c6.17-0.28,8.42-3.93,15.85-3.93s9.54,3.93,15.99,3.79 c6.59-0.14,10.8-5.89,14.73-11.92c4.77-6.73,6.73-13.47,6.73-13.75C127.09,274.66,114.46,269.89,114.32,255.16z"/>
    <path id="XMLID_7_" class="st0" d="M102.12,219.25c3.37-4.21,5.61-9.82,4.91-15.57c-4.77,0.28-10.8,3.37-14.31,7.43 c-3.09,3.51-5.75,9.4-5.05,15.01C93.14,226.4,98.75,223.32,102.12,219.25z"/>
    <path id="XMLID_19_" class="st0" d="M203.68,299.63h-8.56l-4.77-14.87h-16.41l-4.49,14.87h-8.42l16.27-50.5h10.1L203.68,299.63z M188.81,278.58l-4.21-13.19c-0.42-1.4-1.26-4.49-2.52-9.54h-0.14c-0.56,2.1-1.26,5.33-2.38,9.54l-4.21,13.19H188.81z"/>
    <path id="XMLID_22_" class="st0" d="M245.34,280.97c0,6.17-1.68,11.08-5.05,14.73c-2.95,3.23-6.73,4.77-11.22,4.77 c-4.77,0-8.28-1.68-10.38-5.19v19.08h-8.14v-39.28c0-3.93-0.14-7.86-0.28-11.92h7.15l0.42,5.75h0.14 c2.67-4.35,6.73-6.59,12.34-6.59c4.35,0,7.86,1.68,10.8,5.05C243.94,271.01,245.34,275.5,245.34,280.97z M237.06,281.25 c0-3.51-0.84-6.45-2.38-8.84c-1.68-2.38-4.07-3.65-7.01-3.65c-1.96,0-3.79,0.7-5.47,1.96s-2.67,3.09-3.23,5.19 c-0.28,0.98-0.42,1.82-0.42,2.52v6.03c0,2.67,0.84,4.91,2.38,6.73c1.68,1.82,3.79,2.81,6.31,2.81c3.09,0,5.47-1.12,7.15-3.51 C236.22,288.26,237.06,285.18,237.06,281.25z"/>
    <path id="XMLID_25_" class="st0" d="M287.28,280.97c0,6.17-1.68,11.08-5.05,14.73c-3.09,3.23-6.73,4.77-11.22,4.77 c-4.77,0-8.28-1.68-10.38-5.19v19.08h-8.14v-39.28c0-3.93-0.14-7.86-0.28-11.92h7.15l0.42,5.75h0.14 c2.67-4.35,6.73-6.59,12.34-6.59c4.35,0,7.86,1.68,10.8,5.05C285.88,271.01,287.28,275.5,287.28,280.97z M279,281.25 c0-3.51-0.84-6.45-2.38-8.84c-1.68-2.38-4.07-3.65-7.01-3.65c-1.96,0-3.79,0.7-5.47,1.96c-1.68,1.26-2.67,3.09-3.23,5.19 c-0.28,0.98-0.42,1.82-0.42,2.52v6.03c0,2.67,0.84,4.91,2.38,6.73c1.68,1.82,3.79,2.81,6.31,2.81c3.09,0,5.47-1.12,7.15-3.51 C278.16,288.26,279,285.18,279,281.25z"/>
    <path id="XMLID_26_" class="st0" d="M334.13,285.46c0,4.35-1.54,7.86-4.49,10.52c-3.23,2.95-7.86,4.49-13.75,4.49 c-5.47,0-9.82-0.98-13.05-3.09l1.82-6.73c3.51,2.1,7.43,3.09,11.64,3.09c3.09,0,5.47-0.7,7.15-2.1c1.68-1.4,2.52-3.23,2.52-5.47 c0-2.1-0.7-3.79-2.1-5.19s-3.65-2.67-7.01-3.93c-8.84-3.37-13.33-8.14-13.33-14.45c0-4.21,1.54-7.57,4.63-10.24 c3.09-2.67,7.29-3.93,12.34-3.93c4.63,0,8.42,0.84,11.5,2.38l-1.96,6.59c-2.81-1.54-6.03-2.38-9.68-2.38c-2.81,0-5.05,0.7-6.73,2.1 c-1.4,1.26-1.96,2.81-1.96,4.63c0,1.96,0.84,3.65,2.38,4.91c1.4,1.26,3.79,2.52,7.29,3.93c4.35,1.68,7.57,3.79,9.54,6.17 C333.01,279.15,334.13,282.09,334.13,285.46z"/>
    <path id="XMLID_27_" class="st0" d="M360.92,269.33h-8.98V287c0,4.49,1.54,6.73,4.77,6.73c1.4,0,2.67-0.14,3.65-0.42l0.28,6.17 c-1.54,0.56-3.65,0.84-6.31,0.84c-3.23,0-5.75-0.98-7.43-2.95c-1.82-1.96-2.67-5.19-2.67-9.82v-18.38h-5.47v-6.03h5.33v-6.73 l8-2.38v9.12h8.98v6.17H360.92z"/>
    <path id="XMLID_30_" class="st0" d="M401.04,281.11c0,5.61-1.54,10.24-4.77,13.75c-3.37,3.65-7.86,5.61-13.33,5.61 c-5.33,0-9.54-1.82-12.76-5.33c-3.23-3.51-4.77-8-4.77-13.47c0-5.61,1.68-10.24,4.91-13.89c3.23-3.65,7.72-5.33,13.19-5.33 c5.33,0,9.68,1.82,12.91,5.33C399.5,271.29,401.04,275.78,401.04,281.11z M392.63,281.39c0-3.37-0.7-6.17-2.1-8.56 c-1.68-2.95-4.07-4.35-7.29-4.35c-3.23,0-5.75,1.4-7.43,4.35c-1.4,2.38-2.1,5.33-2.1,8.7c0,3.37,0.7,6.17,2.1,8.56 c1.68,2.95,4.21,4.35,7.29,4.35c3.09,0,5.47-1.54,7.29-4.35C391.93,287.56,392.63,284.76,392.63,281.39z"/>
    <path id="XMLID_31_" class="st0" d="M427.41,270.31c-0.84-0.14-1.68-0.28-2.52-0.28c-2.81,0-5.05,1.12-6.59,3.23 c-1.4,1.96-1.96,4.35-1.96,7.15v19.08h-8.14v-24.97c0-4.21-0.14-8-0.28-11.5h7.01l0.28,7.01h0.28c0.84-2.38,2.24-4.35,4.07-5.75 c1.82-1.26,3.79-1.96,5.89-1.96c0.7,0,1.4,0,1.96,0.14L427.41,270.31z"/>
    <path id="XMLID_34_" class="st0" d="M463.61,279.71c0,1.4-0.14,2.67-0.28,3.65h-24.27c0.14,3.65,1.26,6.31,3.51,8.28 c2.1,1.68,4.63,2.52,8,2.52c3.65,0,6.87-0.56,9.82-1.68l1.26,5.61c-3.51,1.54-7.57,2.24-12.2,2.24c-5.61,0-10.1-1.68-13.33-4.91 c-3.23-3.37-4.77-7.72-4.77-13.33c0-5.47,1.54-10.1,4.49-13.75c3.09-3.93,7.43-5.89,12.76-5.89c5.19,0,9.26,1.96,11.92,5.89 C462.48,271.43,463.61,275.22,463.61,279.71z M455.89,277.6c0-2.38-0.42-4.49-1.54-6.17c-1.4-2.24-3.51-3.37-6.45-3.37 c-2.67,0-4.77,1.12-6.45,3.37c-1.4,1.68-2.1,3.79-2.38,6.31L455.89,277.6z"/>
    <path id="XMLID_37_" class="st0" d="M185.02,231.17h-4.21l-2.38-7.29h-8l-2.24,7.29h-4.07l8-24.83h4.91L185.02,231.17z M177.73,220.79l-2.1-6.45c-0.28-0.7-0.56-2.24-1.26-4.63h-0.14c-0.28,1.12-0.56,2.67-1.12,4.63l-2.1,6.45H177.73z"/>
    <path id="XMLID_38_" class="st0" d="M204.94,213.22l-6.73,17.96h-3.93l-6.59-17.96h4.21l3.09,9.4c0.56,1.54,0.98,3.09,1.26,4.49 h0.14c0.28-1.26,0.7-2.81,1.26-4.49l3.09-9.4H204.94z"/>
    <path id="XMLID_41_" class="st0" d="M219.39,231.17l-0.28-2.1h-0.14c-1.26,1.68-2.95,2.52-5.19,2.52c-3.23,0-5.47-2.24-5.47-5.33 c0-4.35,3.79-6.73,10.52-6.73v-0.28c0-2.38-1.26-3.51-3.79-3.51c-1.82,0-3.37,0.42-4.63,1.26l-0.84-2.67 c1.68-0.98,3.79-1.54,6.17-1.54c4.63,0,7.01,2.52,7.01,7.43v6.59c0,1.82,0.14,3.23,0.28,4.21L219.39,231.17z M218.83,222.19 c-4.49,0-6.59,1.12-6.59,3.65c0,1.82,1.12,2.81,2.67,2.81c1.96,0,3.93-1.54,3.93-3.65V222.19z"/>
    <path id="XMLID_44_" class="st0" d="M231.59,210.27c-1.26,0-2.38-0.98-2.38-2.38s1.12-2.38,2.38-2.38c1.4,0,2.52,0.98,2.38,2.38 C234.12,209.29,233,210.27,231.59,210.27z M233.7,231.17h-3.93v-17.96h3.93V231.17z"/>
    <rect id="XMLID_45_" x="240.71" y="204.94" class="st0" width="3.93" height="26.09"/>
    <path id="XMLID_48_" class="st0" d="M261.61,231.17l-0.28-2.1h-0.14c-1.26,1.68-2.95,2.52-5.19,2.52c-3.23,0-5.47-2.24-5.47-5.33 c0-4.35,3.79-6.73,10.52-6.73v-0.28c0-2.38-1.26-3.51-3.79-3.51c-1.82,0-3.37,0.42-4.63,1.26l-0.84-2.67 c1.68-0.98,3.79-1.54,6.17-1.54c4.63,0,7.01,2.52,7.01,7.43v6.59c0,1.82,0.14,3.23,0.28,4.21h-3.65V231.17z M261.05,222.19 c-4.49,0-6.59,1.12-6.59,3.65c0,1.82,1.12,2.81,2.67,2.81c1.96,0,3.93-1.54,3.93-3.65V222.19z"/>
    <path id="XMLID_51_" class="st0" d="M280.97,231.45c-2.52,0-4.35-1.12-5.61-3.23h-0.14l-0.28,2.81h-3.37 c0.14-1.4,0.14-3.09,0.14-4.77v-21.32h3.93v10.8h0.14c1.12-1.96,3.09-2.95,5.75-2.95c4.35,0,7.29,3.65,7.29,9.12 C288.96,227.52,285.6,231.45,280.97,231.45z M280.13,216.02c-2.24,0-4.35,1.96-4.35,4.77v3.09c0,2.52,1.82,4.49,4.35,4.49 c2.95,0,4.77-2.38,4.77-6.31C284.9,218.41,283.07,216.02,280.13,216.02z"/>
    <rect id="XMLID_52_" x="294.86" y="204.94" class="st0" width="3.93" height="26.09"/>
    <path id="XMLID_55_" class="st0" d="M320.39,223.18h-11.92c0.14,3.37,2.38,5.33,5.61,5.33c1.82,0,3.37-0.28,4.77-0.84l0.56,2.81 c-1.68,0.7-3.65,1.12-6.03,1.12c-5.61,0-8.98-3.51-8.98-8.98s3.37-9.68,8.42-9.68c4.63,0,7.43,3.37,7.43,8.56 C320.53,222.05,320.53,222.61,320.39,223.18z M316.74,220.23c0-2.81-1.4-4.77-3.93-4.77c-2.24,0-4.07,1.96-4.35,4.77H316.74z"/>
    <path id="XMLID_58_" class="st0" d="M344.51,231.45c-5.19,0-8.56-3.93-8.56-9.26c0-5.47,3.51-9.4,8.98-9.4 c5.19,0,8.56,3.79,8.56,9.12C353.49,227.66,349.84,231.45,344.51,231.45z M344.65,215.74c-2.81,0-4.77,2.67-4.77,6.45 c0,3.65,1.82,6.31,4.63,6.31s4.63-2.81,4.63-6.45C349.28,218.41,347.46,215.74,344.65,215.74z"/>
    <path id="XMLID_59_" class="st0" d="M374.81,231.17h-3.93v-10.24c0-3.23-1.26-4.77-3.65-4.77s-3.93,1.96-3.93,4.35v10.66h-3.93 v-12.76c0-1.54,0-3.23-0.14-5.05h3.51l0.14,2.81h0.14c1.12-1.96,3.23-3.09,5.61-3.09c3.79,0,6.17,2.81,6.17,7.57L374.81,231.17 L374.81,231.17z"/>
    <path id="XMLID_60_" class="st0" d="M400.9,216.16h-4.35v8.7c0,2.24,0.7,3.37,2.38,3.37c0.7,0,1.26-0.14,1.82-0.14l0.14,3.09 c-0.84,0.28-1.82,0.42-3.09,0.42c-3.09,0-5.05-1.68-5.05-6.31v-8.98h-2.67v-2.95h2.67v-3.23l3.93-1.12v4.49h4.35v2.67H400.9z"/>
    <path id="XMLID_61_" class="st0" d="M421.94,231.17h-3.93v-10.24c0-3.23-1.26-4.77-3.65-4.77c-2.1,0-3.93,1.4-3.93,4.21v10.8h-3.93 v-26.09h3.93v10.8h0.14c1.26-1.96,3.09-2.95,5.33-2.95c3.79,0,6.17,2.95,6.17,7.57v10.66H421.94z"/>
    <path id="XMLID_64_" class="st0" d="M442.28,223.18h-11.92c0.14,3.37,2.38,5.33,5.61,5.33c1.82,0,3.37-0.28,4.77-0.84l0.56,2.81 c-1.68,0.7-3.65,1.12-6.03,1.12c-5.61,0-8.98-3.51-8.98-8.98s3.37-9.68,8.42-9.68c4.63,0,7.43,3.37,7.43,8.56 C442.42,222.05,442.28,222.61,442.28,223.18z M438.64,220.23c0-2.81-1.4-4.77-3.93-4.77c-2.24,0-4.07,1.96-4.35,4.77H438.64z"/>
  </g>
</svg>